<?xml version="1.0" encoding="utf-8"?>
<!-- Generator: Adobe Illustrator 16.0.0, SVG Export Plug-In . SVG Version: 6.00 Build 0)  -->
<!DOCTYPE svg PUBLIC "-//W3C//DTD SVG 1.1//EN" "http://www.w3.org/Graphics/SVG/1.1/DTD/svg11.dtd">
<svg version="1.1"
	 id="svgTarget" xmlns:dc="http://purl.org/dc/elements/1.1/" xmlns:cc="http://creativecommons.org/ns#" xmlns:rdf="http://www.w3.org/1999/02/22-rdf-syntax-ns#" xmlns:svg="http://www.w3.org/2000/svg" xmlns:sodipodi="http://sodipodi.sourceforge.net/DTD/sodipodi-0.dtd" xmlns:inkscape="http://www.inkscape.org/namespaces/inkscape" sodipodi:docname="multicolourpresentation.svg" inkscape:version="0.91 r13725"
	 xmlns="http://www.w3.org/2000/svg" xmlns:xlink="http://www.w3.org/1999/xlink" x="0px" y="0px" width="449px" height="360px"
	 viewBox="425.5 20 449 360" enable-background="new 425.5 20 449 360" xml:space="preserve">
<g id="layer1" transform="translate(200 -48.601)">
	<g id="g2581" transform="matrix(0.852 .072616 -.072616 0.852 2073.1 349.57)">
		
			<path id="rect3536" fill="#FFFFFF" stroke="#000000" stroke-width="2" stroke-linecap="round" stroke-linejoin="round" stroke-miterlimit="3.5032" d="
			M-2073.948-133.401l279.14-23.791c1.033-0.089,1.942,0.684,2.03,1.726l18.796,220.529c0.089,1.04-0.677,1.956-1.709,2.045
			l-279.14,23.791c-1.033,0.087-1.942-0.686-2.03-1.726l-18.796-220.529C-2075.747-132.398-2074.981-133.314-2073.948-133.401z"/>
		<path id="rect2617" fill="#FFFFFF" d="M-2070.795-131.229c6.006,70.468,12.012,140.939,18.019,211.411l276.248-23.546
			c-6.006-70.469-12.012-140.938-18.019-211.41L-2070.795-131.229L-2070.795-131.229z M-2067.859-129.03
			c90.267-7.693,180.526-15.387,270.792-23.08c5.869,68.848,11.737,137.696,17.605,206.547
			c-90.267,7.693-180.529,15.388-270.794,23.08C-2056.126,8.67-2061.993-60.178-2067.859-129.03z"/>
		
			<path id="path2583" inkscape:connector-curvature="0" sodipodi:nodetypes="ccccccc" fill="#2293F5" stroke="#000000" stroke-width="2" stroke-linecap="round" stroke-linejoin="round" stroke-miterlimit="3.5032" d="
			M-1772.554-93.764c19.557,1.633,16.282,29.869-1.197,39.346c-11.987,14.136-32.542,11.376-49.282,10.487
			c-12.589,2.396-21.815-8.871-8.571-15.806c13.896-8.609,36.885,2.42,44.745-16.132c4.759-5.972,2.807-8.406,8.619-12.582
			L-1772.554-93.764z"/>
		
			<path id="path2585" fill="#2293F5" stroke="#000000" stroke-width="2" stroke-linecap="round" stroke-linejoin="round" stroke-miterlimit="3.5032" d="
			M-1734.345-108.146c-12.365,5.893-42.248,3.136-34.248,23.203c3.649,16.829,7.298,33.66,10.945,50.487
			c-5.814,15.254-5.819,31.416-3.082,47.023c3.134,34.266,6.27,68.53,9.405,102.79c14.779,5.372,31.234-5.743,24.046-20.028
			c0.887-30.546,1.773-61.093,2.66-91.642l2.66,105.525c14.789,5.056,31.076-5.307,23.991-19.766
			c0.828-34.219,11.904-71.564,2.571-102.681c-9.334-31.115-0.377-61.473-8.582-93.095c-9.701-3.4-20.302-0.611-30.365-1.824
			L-1734.345-108.146z"/>
		
			<path id="path2595" fill="#F58423" stroke="#000000" stroke-width="2" stroke-linecap="round" stroke-linejoin="round" stroke-miterlimit="3.5032" d="
			M-1705.956,109.952c-18.943-6.181-15.083,26.126,3.221,16.53C-1691.25,123.48-1701.222,113.507-1705.956,109.952z"/>
		
			<path id="path2597" fill="#F58423" stroke="#000000" stroke-width="2" stroke-linecap="round" stroke-linejoin="round" stroke-miterlimit="3.5032" d="
			M-1731.195,117.166c-15.164-7.397-32.734,18.481-11.901,21.145C-1729.594,139.172-1726.504,126.084-1731.195,117.166z"/>
		
			<path id="path2601" fill="#F58423" stroke="#000000" stroke-width="2" stroke-linecap="round" stroke-linejoin="round" stroke-miterlimit="3.5032" d="
			M-1722.436-126.223c8.625,18.868-24.227,35.003-28.996,13.458c-9.934-15.099,8.804-45.512,23.362-27.835
			C-1724.919-136.587-1723.054-131.467-1722.436-126.223L-1722.436-126.223z"/>
		
			<path id="path2607" fill="#F58423" stroke="#000000" stroke-width="2" stroke-linecap="round" stroke-linejoin="round" stroke-miterlimit="3.5032" d="
			M-1831.097-51.652c-8.928,25.288-48.512-9.25-13.217-9.425C-1838.027-61.133-1829.769-58.32-1831.097-51.652z"/>
		
			<path id="path2615" fill="#2293F5" stroke="#000000" stroke-width="2" stroke-linecap="round" stroke-linejoin="round" stroke-miterlimit="3.5032" d="
			M-1701.682-107.533c-11.444-0.315-10.679,39.472,2.75,56.344c-15.638,9.759,11.202,45.646,13.76,16.638
			c19.957-26.263-9.81-69.597-16.511-72.985L-1701.682-107.533z"/>
		
			<path id="path2605" fill="#F58423" stroke="#000000" stroke-width="2" stroke-linecap="round" stroke-linejoin="round" stroke-miterlimit="3.5032" d="
			M-1698.756-16.055c-20.858-9.438,18.833-31.72,11.355-7.722C-1688.712-19.5-1693.033-14.265-1698.756-16.055z"/>
	</g>
	<g id="g2593" transform="matrix(-1 0 0 1 -2984.9 291.26)">
		
			<path id="path2710" fill="#E1DC4C" stroke="#000000" stroke-width="2" stroke-linecap="round" stroke-linejoin="round" stroke-miterlimit="3.5032" d="
			M-3563.412-53.531c21.446,19.424,14.536,43.705,6.472,67.857c-0.27,9.385-5.381,25.045-10.826,8.531
			c-1.837-21.335-9.017-57.791-5.742-65.532c-0.234-7.66,5.798-11.159,10.097-10.854V-53.531z"/>
		
			<path id="path2610" fill="#F58423" stroke="#000000" stroke-width="2" stroke-linecap="round" stroke-linejoin="round" stroke-miterlimit="3.5032" d="
			M-3297.845,90.893c-20.821-3.167,1.661,29.003,9.067,10.663C-3291.802,98.001-3294.823,94.447-3297.845,90.893z"/>
		
			<path id="path2656" fill="#E968D0" stroke="#000000" stroke-width="2" stroke-linecap="round" stroke-linejoin="round" stroke-miterlimit="3.5032" d="
			M-3306.372,100.657c-19.205-6.185-19.205,23.261-0.268,12.805C-3302.25,110.919-3306.994,104.453-3306.372,100.657z"/>
		
			<path id="path2692" fill="#2293F5" stroke="#000000" stroke-width="2" stroke-linecap="round" stroke-linejoin="round" stroke-miterlimit="3.5032" d="
			M-3257.874-84.076c-9.725,3.706-10.598,28.559-7.687,43.192c-16.968-2.172-28.936,9.822-18.667,22.931
			c23.282,2.08,45.303-17.543,39.228-37.625c-3.89-10.291-9.649-30.211-12.874-28.496V-84.076z"/>
		
			<path id="path2600" fill="#F58423" stroke="#000000" stroke-width="2" stroke-linecap="round" stroke-linejoin="round" stroke-miterlimit="3.5032" d="
			M-3250.129-60.338c-21.449,19.425-14.536,43.706-6.474,67.858c0.271,9.384,5.383,25.045,10.828,8.532
			c1.837-21.337,9.017-57.791,5.741-65.533C-3239.797-57.14-3245.831-60.639-3250.129-60.338L-3250.129-60.338z"/>
		
			<path id="path2654" fill="#2293F5" stroke="#000000" stroke-width="2" stroke-linecap="round" stroke-linejoin="round" stroke-miterlimit="3.5032" d="
			M-3342.003-83.381c8.818-0.963,12.21,23.969,3.981,38.67c14.58,8.421,39.342,16.838,17.704,31.466
			c-19.913-8.547-35.91-23.327-30.708-44.667C-3350.783-67.53-3345.661-75.994-3342.003-83.381L-3342.003-83.381z"/>
		
			<path id="path2638" fill="#2293F5" stroke="#000000" stroke-width="2" stroke-linecap="round" stroke-linejoin="round" stroke-miterlimit="3.5032" d="
			M-3300.858-95.487c-13.216,6.735-49.002,0.697-41.227,19.341c4.988,20.569,12.481,41.181,8.604,62.405
			c0.694,38.339,6.793,76.471,9.579,114.737c-7.532,18.521,34.094,14.445,24.933-2.413c0.399-28.496,0.8-56.992,1.2-85.488
			l0.099,91.201c10.022-6.244,8.542-27.111,12.796-38.434c5.794-31.924,14.442-63.613,14.75-96.055
			c3.138-18.425,8.885-36.439,12.85-54.748L-3300.858-95.487L-3300.858-95.487z"/>
		
			<path id="path2632" fill="#EB5147" stroke="#000000" stroke-width="2" stroke-linecap="round" stroke-linejoin="round" stroke-miterlimit="3.5032" d="
			M-3328.979-81.994c2.246,31.037-47.21,7.141-24.416-12.175C-3343.905-106.385-3326.838-93.265-3328.979-81.994L-3328.979-81.994z"
			/>
		
			<path id="path2674" fill="#F58423" stroke="#000000" stroke-width="2" stroke-linecap="round" stroke-linejoin="round" stroke-miterlimit="3.5032" d="
			M-3342.198-44.053c11.97-20.383,26.565,17.494,1.651,5.234l-1.526-2.359L-3342.198-44.053L-3342.198-44.053z"/>
		
			<path id="path2652" fill="#E968D0" stroke="#000000" stroke-width="2" stroke-linecap="round" stroke-linejoin="round" stroke-miterlimit="3.5032" d="
			M-3282.396-113.697c5.133,30.098-47.04,16.148-30.274-8.111C-3306.731-142.169-3279.23-131.588-3282.396-113.697z"/>
		
			<path id="path2612" fill="#EB5147" stroke="#000000" stroke-width="2" stroke-linecap="round" stroke-linejoin="round" stroke-miterlimit="3.5032" d="
			M-3350.177,86.287c-17.674-21.909-16.44,25.479-2.702,8.734C-3351.978,92.11-3351.078,89.199-3350.177,86.287z"/>
		
			<path id="path2630" fill="#EB5147" stroke="#000000" stroke-width="2" stroke-linecap="round" stroke-linejoin="round" stroke-miterlimit="3.5032" d="
			M-3340.79,99.016c-23.533-4.605-2.43,33.479,6.287,11.556C-3334.953,106.135-3339.582,103.235-3340.79,99.016z"/>
		
			<path id="path2604" fill="#F58423" stroke="#000000" stroke-width="2" stroke-linecap="round" stroke-linejoin="round" stroke-miterlimit="3.5032" d="
			M-3305.864-57.377c6.448,12.722,17.244,25.72-4.763,29.547c-10.527,7.93-17.981,10.886-14.81-4.093
			C-3330.258-46.658-3316.507-49.689-3305.864-57.377L-3305.864-57.377z"/>
		
			<path id="path2628" fill="#83F4E2" stroke="#000000" stroke-width="2" stroke-linecap="round" stroke-linejoin="round" stroke-miterlimit="3.5032" d="
			M-3345.249-69.622c-15.629,1.786-36.66,0.041-25.813,19.145c4.62,18.415-1.354,33.784-3.203,51.685
			c-3.562,34.45,12.161,73.355,18.428,110.001c23.512,5.695,22.156-11.384,18.179-26.383c-2.32-19.821-4.643-39.646-6.964-59.466
			l5.322,41.74c6.307-20.029,27.801-52.264,21.865-68.684c-5.802-16.053-5.762-31.029-2.584-47.051
			c11.291-19.961-10.568-14.721-25.229-20.982L-3345.249-69.622L-3345.249-69.622z"/>
		
			<path id="path2636" fill="#F58423" stroke="#000000" stroke-width="2" stroke-linecap="round" stroke-linejoin="round" stroke-miterlimit="3.5032" d="
			M-3371.336-66.765c2.344,14.01,12.436,43.941-14.146,40.116C-3389.883-42.478-3386.737-56.592-3371.336-66.765z"/>
		
			<path id="path2708" fill="#22BBF5" stroke="#000000" stroke-width="2" stroke-linecap="round" stroke-linejoin="round" stroke-miterlimit="3.5032" d="
			M-3355.065-77.093c-8.749-1.7-13.736,29.544-5.78,44.457c-13.383,5.652,2.211,37.157,8.241,14.772
			c19.013-18.025,2.213-55.732-2.461-59.232V-77.093z"/>
		
			<path id="path2680" fill="#F58423" stroke="#000000" stroke-width="2" stroke-linecap="round" stroke-linejoin="round" stroke-miterlimit="3.5032" d="
			M-3445.256,102.819c26.752-8.44,4.544,30.958-5.125,9.794C-3450.77,108.742-3447.721,105.617-3445.256,102.819z"/>
		
			<path id="path2660" fill="#53D269" stroke="#000000" stroke-width="2" stroke-linecap="round" stroke-linejoin="round" stroke-miterlimit="3.5032" d="
			M-3399.849,103.637c-19.649-8.611-31.506,28.421-6.864,21.308C-3397.802,120.707-3401.893,110.778-3399.849,103.637z"/>
		
			<path id="path2682" fill="#F58423" stroke="#000000" stroke-width="2" stroke-linecap="round" stroke-linejoin="round" stroke-miterlimit="3.5032" d="
			M-3419.952,99.345c-20.712-7.045-6.186,23.913,4.552,9.552C-3417.957,106.156-3418.356,102.498-3419.952,99.345z"/>
		
			<path id="path2626" fill="#F58423" stroke="#000000" stroke-width="2" stroke-linecap="round" stroke-linejoin="round" stroke-miterlimit="3.5032" d="
			M-3400.005-63.196c-3.869,9.682-7.269,38.569,12.414,27.183C-3369.31-44.756-3395.852-64.068-3400.005-63.196z"/>
		
			<path id="path2678" fill="#BAD873" stroke="#000000" stroke-width="2" stroke-linecap="round" stroke-linejoin="round" stroke-miterlimit="3.5032" d="
			M-3429.455-69.603c-17.921,3.72-35.764,7.773-23.524,26.483c7.466,15.997,1.168,31.466-1.463,47.779
			c-3.841,23.839,2.781,48.712,3.456,73.07c1.521,14.022-3.986,46.63,19.855,30.804c1.849-20.798,2.925-63.841,1.2-71.374
			c-0.492,23.659-0.726,47.323-0.775,70.988c22.054,8.978,12.779-26.669,20.014-37.479c4.822-22.764,20.486-47.856,14.467-68.29
			c-6.587-22.355,3.876-49.495-4.145-65.828c-9.695-2.052-19.389-4.104-29.085-6.156V-69.603z"/>
		
			<path id="path2684" fill="#F58423" stroke="#000000" stroke-width="2" stroke-linecap="round" stroke-linejoin="round" stroke-miterlimit="3.5032" d="
			M-3413.303-85.111c2.245,31.036-47.211,7.141-24.418-12.175C-3428.229-109.501-3411.164-96.382-3413.303-85.111z"/>
		
			<path id="path2690" fill="#F58423" stroke="#000000" stroke-width="2" stroke-linecap="round" stroke-linejoin="round" stroke-miterlimit="3.5032" d="
			M-3386.746-40.746c8.213-21.813,29.329,13.54,2.558,4.934l-1.925-2.114L-3386.746-40.746L-3386.746-40.746L-3386.746-40.746z"/>
		
			<path id="path2618" fill="#E1DC4C" stroke="#000000" stroke-width="2" stroke-linecap="round" stroke-linejoin="round" stroke-miterlimit="3.5032" d="
			M-3552.071,113.017c-27.822-4.309-5.134,26.558,8.211,11.12C-3545.614,119.839-3550.145,117.221-3552.071,113.017z"/>
		
			<path id="path2620" fill="#E1DC4C" stroke="#000000" stroke-width="2" stroke-linecap="round" stroke-linejoin="round" stroke-miterlimit="3.5032" d="
			M-3527.469,104.865c-31.271-1.74,7.73,26.033,7.443,9.922L-3527.469,104.865z"/>
		
			<path id="path2658" fill="#53D269" stroke="#000000" stroke-width="2" stroke-linecap="round" stroke-linejoin="round" stroke-miterlimit="3.5032" d="
			M-3383.578,105.929c-26.225-5.942-4.945,31.721,7.823,13.308C-3375.956,113.945-3381.926,110.763-3383.578,105.929z"/>
		
			<path id="path2662" fill="#C347D7" stroke="#000000" stroke-width="2" stroke-linecap="round" stroke-linejoin="round" stroke-miterlimit="3.5032" d="
			M-3464.891,109.492c-26.125-5.977-5.185,30.179,2.479,9.976C-3463.239,116.144-3464.065,112.819-3464.891,109.492z"/>
		
			<path id="path2702" fill="#C347D7" stroke="#000000" stroke-width="2" stroke-linecap="round" stroke-linejoin="round" stroke-miterlimit="3.5032" d="
			M-3489.609,106.647c-19.649-8.609-31.506,28.425-6.864,21.31C-3487.561,123.72-3491.653,113.788-3489.609,106.647z"/>
		
			<path id="path2704" fill="#F58423" stroke="#000000" stroke-width="2" stroke-linecap="round" stroke-linejoin="round" stroke-miterlimit="3.5032" d="
			M-3298.549,101.937c26.753-8.441,4.546,30.957-5.125,9.795C-3304.063,107.861-3301.014,104.735-3298.549,101.937z"/>
		
			<path id="path2706" fill="#F58423" stroke="#000000" stroke-width="2" stroke-linecap="round" stroke-linejoin="round" stroke-miterlimit="3.5032" d="
			M-3271.992,100.4c-20.712-7.046-6.185,23.911,4.551,9.552C-3269.999,107.209-3270.398,103.551-3271.992,100.4z"/>
		
			<path id="path2598" fill="#F58423" stroke="#000000" stroke-width="2" stroke-linecap="round" stroke-linejoin="round" stroke-miterlimit="3.5032" d="
			M-3378.415-26.799c14.774,19.209-33.635,15.182-10.431-0.727C-3385.645-29.099-3381.206-29.183-3378.415-26.799z"/>
		
			<path id="path2606" fill="#F58423" stroke="#000000" stroke-width="2" stroke-linecap="round" stroke-linejoin="round" stroke-miterlimit="3.5032" d="
			M-3254.783,32.867c-16.035-18.031,28.727-14.533,6.036,0.779l-3.037,0.285L-3254.783,32.867L-3254.783,32.867L-3254.783,32.867z"
			/>
		
			<path id="path2608" fill="#F58423" stroke="#000000" stroke-width="2" stroke-linecap="round" stroke-linejoin="round" stroke-miterlimit="3.5032" d="
			M-3569.553,37.566c-16.033-18.028,28.727-14.532,6.037,0.78l-3.036,0.285L-3569.553,37.566L-3569.553,37.566L-3569.553,37.566z"/>
		
			<path id="path2616" fill="#9082DE" stroke="#000000" stroke-width="2" stroke-linecap="round" stroke-linejoin="round" stroke-miterlimit="3.5032" d="
			M-3543.661-63.064c-16.357,4.602-35.442,7.92-23.122,26.004c11.703,20.649-1.259,38.928-2.147,59.68
			c-1.458,34.082,2.79,68.703,4.342,103.045c24.05,4.69,14.512-21.025,18.538-33.741c1.661-16.639,3.323-33.276,4.985-49.917
			c0.36,25.25,0.72,50.503,1.078,75.756c26.881,6.638,15.713-26.23,22.219-40.006c3.43-21.481,14.633-44.332,10.291-64.447
			c-4.229-19.584-10.877-38.402-7.022-58.439c8.573-21.621-13.501-13.365-29.163-17.935L-3543.661-63.064z"/>
		
			<path id="path2622" inkscape:connector-curvature="0" sodipodi:nodetypes="ccccc" fill="#F58423" stroke="#000000" stroke-width="2" stroke-linecap="round" stroke-linejoin="round" stroke-miterlimit="3.5032" d="
			M-3514.628-66.041c-11.153,8.976,0.464,40.701,25.011,35.715c22.188-9.488-7.482-37.615-14.084-42.555l-6.926-0.291
			L-3514.628-66.041z"/>
		
			<path id="path2624" fill="#E1DC4C" stroke="#000000" stroke-width="2" stroke-linecap="round" stroke-linejoin="round" stroke-miterlimit="3.5032" d="
			M-3531.772-82.297c8.453,22.416-32.934,21.549-28.066-0.8C-3557.116-100.726-3533.794-99.839-3531.772-82.297z"/>
		
			<path id="path2644" fill="#EBB777" stroke="#000000" stroke-width="2" stroke-linecap="round" stroke-linejoin="round" stroke-miterlimit="3.5032" d="
			M-3437.981-75.468c-11.859,0.616-11.798,30.937-8.891,45.566c-16.965-2.172-28.934,9.823-18.667,22.93
			c23.286,2.083,45.304-17.542,39.23-37.624c-3.891-10.291-7.383-30.686-11.675-30.872H-3437.981z"/>
		
			<path id="path2648" fill="#C347D7" stroke="#000000" stroke-width="2" stroke-linecap="round" stroke-linejoin="round" stroke-miterlimit="3.5032" d="
			M-3466.768-90.063c3.865,31.127-48.338,12.412-27.48-11.051C-3485.828-117.048-3463.586-104.43-3466.768-90.063z"/>
		
			<path id="path2650" fill="#53D269" stroke="#000000" stroke-width="2" stroke-linecap="round" stroke-linejoin="round" stroke-miterlimit="3.5032" d="
			M-3380.958-101.723c3.866,31.127-48.337,12.412-27.48-11.05C-3400.017-128.707-3377.776-116.09-3380.958-101.723z"/>
		
			<path id="path2664" fill="#F58423" stroke="#000000" stroke-width="2" stroke-linecap="round" stroke-linejoin="round" stroke-miterlimit="3.5032" d="
			M-3496.298,4.328c-5.845,22.703-35.312-11.771-6.466-7.331C-3499.296-1.968-3496.219,0.884-3496.298,4.328z"/>
		
			<path id="path2666" fill="#F58423" stroke="#000000" stroke-width="2" stroke-linecap="round" stroke-linejoin="round" stroke-miterlimit="3.5032" d="
			M-3463.365-17.93c-5.847,22.701-35.312-11.771-6.466-7.331C-3466.365-24.226-3463.286-21.375-3463.365-17.93z"/>
		
			<path id="path2668" fill="#F58423" stroke="#000000" stroke-width="2" stroke-linecap="round" stroke-linejoin="round" stroke-miterlimit="3.5032" d="
			M-3384.868-18.993c-5.848,22.702-35.312-11.771-6.466-7.331C-3387.867-25.291-3384.791-22.438-3384.868-18.993z"/>
		
			<path id="path2676" fill="#F58423" stroke="#000000" stroke-width="2" stroke-linecap="round" stroke-linejoin="round" stroke-miterlimit="3.5032" d="
			M-3531.184-18.055c9.899-21.247,28.197,15.333,2.164,5.084l-1.755-2.229L-3531.184-18.055L-3531.184-18.055z"/>
		
			<path id="path2686" fill="#22BBF5" stroke="#000000" stroke-width="2" stroke-linecap="round" stroke-linejoin="round" stroke-miterlimit="3.5032" d="
			M-3432.584-70.562c6.768,0.655,18.268,20.189,9.924,32.877c13.588,4.532,37.789,12.59,16.65,24.021
			c-20.932-4.486-47.08-14.329-31.752-37.12c0.271-1.038,0.544-2.077,0.814-3.116c0.129-0.484,0.256-0.969,0.381-1.453
			c1.328-5.068,2.388-14.537,3.982-15.207V-70.562z"/>
		
			<path id="path2696" fill="#CACF55" stroke="#000000" stroke-width="2" stroke-linecap="round" stroke-linejoin="round" stroke-miterlimit="3.5032" d="
			M-3279.659-66.91c-17.92,3.72-35.762,7.773-23.523,26.484c7.466,15.998,1.168,31.465-1.463,47.779
			c-3.84,23.842,2.78,48.713,3.457,73.07c1.52,14.023-3.988,46.628,19.854,30.806c1.849-20.799,2.925-63.842,1.2-71.376
			c-0.491,23.662-0.725,47.323-0.774,70.987c22.052,8.978,12.777-26.669,20.013-37.478c4.822-22.763,20.485-47.855,14.467-68.289
			c-6.586-22.355,3.875-49.496-4.145-65.828C-3260.268-62.806-3269.965-64.858-3279.659-66.91L-3279.659-66.91z"/>
		
			<path id="path2698" fill="#F58423" stroke="#000000" stroke-width="2" stroke-linecap="round" stroke-linejoin="round" stroke-miterlimit="3.5032" d="
			M-3260.455-83.322c-3.253,30.966-47.884,0.438-21.969-15.444C-3270.899-109.5-3256.355-94.153-3260.455-83.322z"/>
		
			<path id="path2596" fill="#22BBF5" stroke="#000000" stroke-width="2" stroke-linecap="round" stroke-linejoin="round" stroke-miterlimit="3.5032" d="
			M-3396.33-81.471c-15.28,6.14-47.789,2.827-34.748,24.672c7.62,24.84,6.003,44.701,3.767,74.23
			c-2.235,29.529,3.222,68.369,4.997,102.542c14.396,1.68,28.793,3.357,23.9-13.884c1.405-26.808,2.809-53.615,4.214-80.426
			c-2.606,30.842-5.215,61.684-7.822,92.528c30.914,7.7,24.09-24.458,29.444-42.276c4.034-22.711,14.679-45.894,12.101-68.133
			c-2.58-22.238,2.385-44.485,3.558-66.676c4.016-12.473,4.346-22.385-12.996-20.006
			C-3378.718-79.756-3387.522-80.613-3396.33-81.471L-3396.33-81.471z"/>
		
			<path id="path2642" fill="#EBB777" stroke="#000000" stroke-width="2" stroke-linecap="round" stroke-linejoin="round" stroke-miterlimit="3.5032" d="
			M-3523.87-64.842c8.749-1.7,13.735,29.543,5.781,44.458c13.383,5.652-2.214,37.155-8.244,14.771
			c-19.012-18.024-2.213-55.731,2.462-59.231L-3523.87-64.842L-3523.87-64.842z"/>
		
			<path id="path2640" inkscape:connector-curvature="0" sodipodi:nodetypes="csccccccccccc" fill="#EBB777" stroke="#000000" stroke-width="2" stroke-linecap="round" stroke-linejoin="round" stroke-miterlimit="3.5032" d="
			M-3480.575-76.992c-7.296,3.58-19.855,0.872-29.231,3.201c-8.14,2.021-14.03,8.519-10.106,17.824
			c2.576,22.465,10.508,44.994,4.905,67.473c-0.2,31.875,4.179,63.725,5.609,95.604c-4.527,14.887,8.146,23.039,22.305,15.388
			c1.89-31.619,3.782-63.235,5.672-94.853c0.576,31.734,1.153,63.471,1.729,95.208c29.191,7.889,17.848-26.716,23.943-41.794
			c2.907-24.901,8.466-49.896,9.076-74.807c-1.928-23.705,5.836-47.093,7.508-70.706c6.623-16.246-30.299-8.067-41.409-12.536
			L-3480.575-76.992z"/>
	</g>
</g>
</svg>
